# xmcd
#
# Track frame offsets: 
#        150
#        33232
#        60668
#        98923
#        116202
#        136745
#        155512
#
# Disc length: 2525 seconds
#
# Revision: 0
# Processed by: cddbd v1.5.2PL0 Copyright (c) Steve Scherf et al.
# Submitted via: ExactAudioCopy v0.99pb4
#
DISCID=5709db07
DTITLE=RJF - Greater Success In Apprehension and Convictions
DYEAR=2008
DGENRE=Industrial
TTITLE0=Maximum Pain
TTITLE1=Jugend Dance
TTITLE2=Christmas Laughing
TTITLE3=Minimal Brain Function
TTITLE4=Convulsive Repulsive
TTITLE5=No Room
TTITLE6=Zuwiederhandlungen
EXTD=
EXTT0=
EXTT1=
EXTT2=
EXTT3=
EXTT4=
EXTT5=
EXTT6=
PLAYORDER=
